<?xml version="1.0" standalone="no"?><!DOCTYPE svg PUBLIC "-//W3C//DTD SVG 1.1//EN" "http://www.w3.org/Graphics/SVG/1.1/DTD/svg11.dtd"><svg t="1757773858072" class="icon" viewBox="0 0 1024 1024" version="1.1" xmlns="http://www.w3.org/2000/svg" p-id="5960" xmlns:xlink="http://www.w3.org/1999/xlink" width="200" height="200"><path d="M921.6 45.397333H102.4c-37.614933 0-68.266667 30.651733-68.266667 68.266667v819.2c0 37.6832 30.651733 68.266667 68.266667 68.266667h631.466667a34.133333 34.133333 0 1 0 0-68.266667H102.4v-819.2h819.2v631.466667a34.133333 34.133333 0 1 0 68.266667 0v-631.466667c0-37.614933-30.583467-68.266667-68.266667-68.266667z" fill="#2c2c2c" p-id="5961"></path><path d="M810.3936 773.461333A220.501333 220.501333 0 0 0 853.333333 642.6624a222.139733 222.139733 0 0 0-221.866666-221.866667 222.139733 222.139733 0 0 0-221.866667 221.866667 222.139733 222.139733 0 0 0 221.866667 221.866667c47.035733 0 92.842667-15.018667 130.6624-42.939734l118.237866 118.306134a34.065067 34.065067 0 0 0 58.299734-24.1664 34.133333 34.133333 0 0 0-9.966934-24.098134l-118.306133-118.306133zM477.866667 642.6624c0-84.650667 68.949333-153.6 153.6-153.6S785.066667 558.08 785.066667 642.730667s-68.949333 153.6-153.6 153.6-153.6-68.949333-153.6-153.6z m341.333333-384a34.133333 34.133333 0 0 0-34.133333-34.133333H238.933333a34.133333 34.133333 0 0 0 0 68.266666h546.133334a34.133333 34.133333 0 0 0 34.133333-34.133333zM238.933333 428.032a34.133333 34.133333 0 0 0 0 68.266667h102.4a34.133333 34.133333 0 0 0 0-68.266667H238.933333z" fill="#2c2c2c" p-id="5962"></path><path d="M921.6 45.397333H102.4c-37.614933 0-68.266667 30.651733-68.266667 68.266667v819.2c0 37.6832 30.651733 68.266667 68.266667 68.266667h631.466667a34.133333 34.133333 0 1 0 0-68.266667H102.4v-819.2h819.2v631.466667a34.133333 34.133333 0 1 0 68.266667 0v-631.466667c0-37.614933-30.583467-68.266667-68.266667-68.266667z" fill="#2c2c2c" p-id="5963"></path><path d="M810.3936 773.461333A220.501333 220.501333 0 0 0 853.333333 642.6624a222.139733 222.139733 0 0 0-221.866666-221.866667 222.139733 222.139733 0 0 0-221.866667 221.866667 222.139733 222.139733 0 0 0 221.866667 221.866667c47.035733 0 92.842667-15.018667 130.6624-42.939734l118.237866 118.306134a34.065067 34.065067 0 0 0 58.299734-24.1664 34.133333 34.133333 0 0 0-9.966934-24.098134l-118.306133-118.306133zM477.866667 642.6624c0-84.650667 68.949333-153.6 153.6-153.6S785.066667 558.08 785.066667 642.730667s-68.949333 153.6-153.6 153.6-153.6-68.949333-153.6-153.6z m341.333333-384a34.133333 34.133333 0 0 0-34.133333-34.133333H238.933333a34.133333 34.133333 0 0 0 0 68.266666h546.133334a34.133333 34.133333 0 0 0 34.133333-34.133333zM238.933333 428.032a34.133333 34.133333 0 0 0 0 68.266667h102.4a34.133333 34.133333 0 0 0 0-68.266667H238.933333z" fill="#2c2c2c" p-id="5964"></path></svg>